<svg id="Layer_1" data-name="Layer 1" xmlns="http://www.w3.org/2000/svg" viewBox="0 0 240.7 59.9"><defs><style>.cls-1{fill:none;}.cls-2{fill:#2a2a29;}.cls-3{fill:#00c18b;}</style></defs><title>Artboard 1</title><rect class="cls-1" x="-109.25" y="-107.1" width="243.7" height="123.8"/><path class="cls-2" d="M100.9,19.9a9,9,0,0,1,3.6-7.23,14.42,14.42,0,0,1,9.46-3q5.86,0,9.31,2.9a10.5,10.5,0,0,1,3.69,7.9h-7.14a5.58,5.58,0,0,0-1.74-3.91,6.29,6.29,0,0,0-4.36-1.4,6.93,6.93,0,0,0-4.39,1.25,4,4,0,0,0-1.59,3.29,3.55,3.55,0,0,0,2,3.2,15.63,15.63,0,0,0,4.91,1.71q2.9.55,5.8,1.34a10.49,10.49,0,0,1,4.91,2.9,7.83,7.83,0,0,1,2,5.64,8.51,8.51,0,0,1-3.69,7.14,15.49,15.49,0,0,1-9.49,2.75,14.84,14.84,0,0,1-9.4-2.81,10.54,10.54,0,0,1-4-8H108a5.41,5.41,0,0,0,1.83,3.91,6.69,6.69,0,0,0,4.48,1.4,7.39,7.39,0,0,0,4.52-1.25,3.94,3.94,0,0,0,1.68-3.33,3.58,3.58,0,0,0-2-3.23,16.22,16.22,0,0,0-4.91-1.74q-2.9-.58-5.8-1.34a10.64,10.64,0,0,1-4.91-2.78A7.26,7.26,0,0,1,100.9,19.9Z"/><path class="cls-2" d="M139.52-1.27V15.57q3.36-5.86,10.74-5.86a12.53,12.53,0,0,1,9.37,3.78q3.69,3.78,3.69,10.56V43.9h-6.9V25.09q0-4.51-2.26-6.92A8,8,0,0,0,148,15.76a8.13,8.13,0,0,0-6.19,2.41q-2.29,2.41-2.29,6.92V43.9h-7V-1.27Z"/><path class="cls-2" d="M184.34,44.43a16.35,16.35,0,0,1-12.11-4.79q-4.76-4.79-4.76-12.57t4.91-12.57a18,18,0,0,1,24.47,0q4.91,4.79,4.91,12.54a16.61,16.61,0,0,1-5,12.57A17.23,17.23,0,0,1,184.34,44.43Zm7.23-8.91q3-3.05,3-8.48t-3-8.45a9.67,9.67,0,0,0-7.17-3,9.37,9.37,0,0,0-7.08,3q-2.87,3-2.87,8.48t2.81,8.48a9.15,9.15,0,0,0,7,3,9.88,9.88,0,0,0,7.26-3Z"/><path class="cls-2" d="M224.88,9.71a14.87,14.87,0,0,1,11.29,4.79q4.51,4.79,4.52,12.45a17.78,17.78,0,0,1-4.55,12.57,14.72,14.72,0,0,1-11.26,4.91,12.88,12.88,0,0,1-7-1.86,13.78,13.78,0,0,1-4.76-5V59.9h-7V10.26h7v6a13.17,13.17,0,0,1,4.73-4.73A13.39,13.39,0,0,1,224.88,9.71Zm5.67,25.54a11.45,11.45,0,0,0,3-8.33,11,11,0,0,0-3-8.18,9.89,9.89,0,0,0-7.2-3,9.78,9.78,0,0,0-7.2,3.05,12.78,12.78,0,0,0,0,16.5,9.85,9.85,0,0,0,13.92.39l.45-.45Z"/><path class="cls-3" d="M52.75,0H64.19L52,43.64H39.75L32.1,16,24.52,43.64H12.37L0,0H11.38L19,31.4,26.75,0h12l7.46,30.9Z"/><path class="cls-3" d="M94.44-.1V8H78.65v9.39H92.58v8.08H78.65V35.58H94.44v8.08H68V-.1Z"/></svg>